<svg width="100%" viewBox="0 0 680 340" xmlns="http://www.w3.org/2000/svg">
  <defs>
    <marker id="arrow" viewBox="0 0 10 10" refX="8" refY="5" markerWidth="6" markerHeight="6" orient="auto-start-reverse">
      <path d="M2 1L8 5L2 9" fill="none" stroke="context-stroke" stroke-width="1.5" stroke-linecap="round" stroke-linejoin="round"/>
    </marker>
  <mask id="imagine-text-gaps-arog8h" maskUnits="userSpaceOnUse"><rect x="0" y="0" width="680" height="340" fill="white"/><rect x="257.86480712890625" y="14.496454238891602" width="164.2703857421875" height="21.361703872680664" fill="black" rx="2"/><rect x="247.9632110595703" y="36.425533294677734" width="184.0555419921875" height="18.468085289001465" fill="black" rx="2"/><rect x="56" y="72.42552947998047" width="101.93460845947266" height="18.468085289001465" fill="black" rx="2"/><rect x="91.2535400390625" y="85.31915283203125" width="58.25663757324219" height="21.36170196533203" fill="black" rx="2"/><rect x="195.84486389160156" y="86.31914520263672" width="12.310283660888672" height="21.36170196533203" fill="black" rx="2"/><rect x="255.44326782226562" y="85.31915283203125" width="49.3449821472168" height="21.36170196533203" fill="black" rx="2"/><rect x="355.8448791503906" y="86.31914520263672" width="12.310283660888672" height="21.36170196533203" fill="black" rx="2"/><rect x="414.3506164550781" y="85.31915283203125" width="52.28758239746094" height="21.36170196533203" fill="black" rx="2"/><rect x="355.0354919433594" y="136.425537109375" width="91.49290466308594" height="18.468085289001465" fill="black" rx="2"/><rect x="56" y="169.425537109375" width="176.44769287109375" height="18.468085289001465" fill="black" rx="2"/><rect x="271.42108154296875" y="196.31915283203125" width="137.65054321289062" height="21.36170196533203" fill="black" rx="2"/><rect x="246.10194396972656" y="215.76596069335938" width="186.83155822753906" height="18.468085289001465" fill="black" rx="2"/><rect x="215.01063537597656" y="258.425537109375" width="249.01417541503906" height="18.468085289001465" fill="black" rx="2"/><rect x="86.67906951904297" y="284.31915283203125" width="47.25518798828125" height="21.36170196533203" fill="black" rx="2"/><rect x="66.75531005859375" y="301.7659606933594" width="86.46289825439453" height="18.468085289001465" fill="black" rx="2"/><rect x="218.25355529785156" y="284.31915283203125" width="58.25663757324219" height="21.36170196533203" fill="black" rx="2"/><rect x="199.31695556640625" y="301.7659606933594" width="95.16532135009766" height="18.468085289001465" fill="black" rx="2"/><rect x="342.4432678222656" y="284.31915283203125" width="49.3449821472168" height="21.36170196533203" fill="black" rx="2"/><rect x="324.4335021972656" y="301.7659606933594" width="84.93031311035156" height="18.468085289001465" fill="black" rx="2"/><rect x="461.3506164550781" y="284.31915283203125" width="52.28755187988281" height="21.36170196533203" fill="black" rx="2"/><rect x="467.99688720703125" y="301.7659606933594" width="37.9875431060791" height="18.468085289001465" fill="black" rx="2"/><rect x="584.1218872070312" y="292.31915283203125" width="34.37935256958008" height="21.36170196533203" fill="black" rx="2"/></mask></defs>

  <!-- 제목 -->
  <text x="340" y="30" text-anchor="middle" style="fill:rgb(250, 249, 245);stroke:none;font-family:-apple-system, BlinkMacSystemFont, 'Segoe UI', sans-serif;font-size:14px;font-weight:500;text-anchor:middle;">코드 한 줄 다음 일어나는 일</text>
  <text x="340" y="50" text-anchor="middle" style="fill:rgb(194, 192, 182);stroke:none;font-family:-apple-system, BlinkMacSystemFont, 'Segoe UI', sans-serif;font-size:12px;font-weight:400;text-anchor:middle;">chain = prompt | model | parser</text>

  <!-- 위쪽: 사용자가 쓰는 코드 -->
  <rect x="40" y="68" width="600" height="44" rx="8" fill="none" stroke="rgba(222, 220, 209, 0.3)" stroke-width="1" stroke-dasharray="4 3"/>
  <text x="60" y="86" fill="rgb(194, 192, 182)" style="font-family:-apple-system, BlinkMacSystemFont, 'Segoe UI', sans-serif;font-size:12px;">사용자가 쓰는 코드</text>

  <g>
    <rect x="60" y="78" width="120" height="34" rx="6" stroke-width="0.5" style="fill:rgb(60, 52, 137);stroke:rgb(175, 169, 236);"/>
    <text x="120" y="96" text-anchor="middle" dominant-baseline="central" style="fill:rgb(206, 203, 246);font-family:-apple-system, BlinkMacSystemFont, 'Segoe UI', sans-serif;font-size:14px;font-weight:500;">prompt</text>
  </g>
  <text x="202" y="97" text-anchor="middle" dominant-baseline="central" style="fill:rgb(250, 249, 245);font-size:14px;font-weight:500;">|</text>
  <g>
    <rect x="220" y="78" width="120" height="34" rx="6" stroke-width="0.5" style="fill:rgb(60, 52, 137);stroke:rgb(175, 169, 236);"/>
    <text x="280" y="96" text-anchor="middle" dominant-baseline="central" style="fill:rgb(206, 203, 246);font-family:-apple-system, BlinkMacSystemFont, 'Segoe UI', sans-serif;font-size:14px;font-weight:500;">model</text>
  </g>
  <text x="362" y="97" text-anchor="middle" dominant-baseline="central" style="fill:rgb(250, 249, 245);font-size:14px;font-weight:500;">|</text>
  <g>
    <rect x="380" y="78" width="120" height="34" rx="6" stroke-width="0.5" style="fill:rgb(60, 52, 137);stroke:rgb(175, 169, 236);"/>
    <text x="440" y="96" text-anchor="middle" dominant-baseline="central" style="fill:rgb(206, 203, 246);font-family:-apple-system, BlinkMacSystemFont, 'Segoe UI', sans-serif;font-size:14px;font-weight:500;">parser</text>
  </g>

  <!-- 파이프 화살표 -->
  <line x1="340" y1="134" x2="340" y2="158" marker-end="url(#arrow)" stroke="rgb(156, 154, 146)" stroke-width="1.5"/>
  <text x="360" y="150" fill="rgb(194, 192, 182)" style="font-family:-apple-system, BlinkMacSystemFont, 'Segoe UI', sans-serif;font-size:12px;">__or__ 오버로딩</text>

  <!-- 아래쪽: 실제 내부 -->
  <rect x="40" y="165" width="600" height="80" rx="8" fill="none" stroke="rgba(222, 220, 209, 0.3)" stroke-width="1" stroke-dasharray="4 3"/>
  <text x="60" y="183" fill="rgb(194, 192, 182)" style="font-family:-apple-system, BlinkMacSystemFont, 'Segoe UI', sans-serif;font-size:12px;">실제 내부 (RunnableSequence)</text>

  <g>
    <rect x="60" y="190" width="560" height="46" rx="8" stroke-width="0.5" style="fill:rgb(8, 80, 65);stroke:rgb(93, 202, 165);"/>
    <text x="340" y="207" text-anchor="middle" dominant-baseline="central" style="fill:rgb(159, 225, 203);font-family:-apple-system, BlinkMacSystemFont, 'Segoe UI', sans-serif;font-size:14px;font-weight:500;">RunnableSequence</text>
    <text x="340" y="225" text-anchor="middle" dominant-baseline="central" style="fill:rgb(93, 202, 165);font-family:-apple-system, BlinkMacSystemFont, 'Segoe UI', sans-serif;font-size:12px;">steps = [prompt, model, parser]</text>
  </g>

  <!-- 아래: invoke 호출 흐름 -->
  <text x="340" y="272" text-anchor="middle" fill="rgb(194, 192, 182)" style="font-family:-apple-system, BlinkMacSystemFont, 'Segoe UI', sans-serif;font-size:12px;">chain.invoke({"country": "대한민국"}) 실행 시</text>

  <g>
    <rect x="50" y="285" width="120" height="36" rx="6" stroke-width="0.5" style="fill:rgb(68, 68, 65);stroke:rgb(180, 178, 169);"/>
    <text x="110" y="295" text-anchor="middle" dominant-baseline="central" style="fill:rgb(211, 209, 199);font-size:14px;font-weight:500;">입력값</text>
    <text x="110" y="311" text-anchor="middle" dominant-baseline="central" style="fill:rgb(180, 178, 169);font-size:12px;">{"country": ...}</text>
  </g>
  <line x1="170" y1="303" x2="202" y2="303" marker-end="url(#arrow)" stroke="rgb(156, 154, 146)" stroke-width="1.5"/>
  <g>
    <rect x="202" y="285" width="90" height="36" rx="6" stroke-width="0.5" style="fill:rgb(60, 52, 137);stroke:rgb(175, 169, 236);"/>
    <text x="247" y="295" text-anchor="middle" dominant-baseline="central" style="fill:rgb(206, 203, 246);font-size:14px;font-weight:500;">prompt</text>
    <text x="247" y="311" text-anchor="middle" dominant-baseline="central" style="fill:rgb(175, 169, 236);font-size:12px;">→ PromptValue</text>
  </g>
  <line x1="292" y1="303" x2="322" y2="303" marker-end="url(#arrow)" stroke="rgb(156, 154, 146)" stroke-width="1.5"/>
  <g>
    <rect x="322" y="285" width="90" height="36" rx="6" stroke-width="0.5" style="fill:rgb(60, 52, 137);stroke:rgb(175, 169, 236);"/>
    <text x="367" y="295" text-anchor="middle" dominant-baseline="central" style="fill:rgb(206, 203, 246);font-size:14px;font-weight:500;">model</text>
    <text x="367" y="311" text-anchor="middle" dominant-baseline="central" style="fill:rgb(175, 169, 236);font-size:12px;">→ AIMessage</text>
  </g>
  <line x1="412" y1="303" x2="442" y2="303" marker-end="url(#arrow)" stroke="rgb(156, 154, 146)" stroke-width="1.5"/>
  <g>
    <rect x="442" y="285" width="90" height="36" rx="6" stroke-width="0.5" style="fill:rgb(60, 52, 137);stroke:rgb(175, 169, 236);"/>
    <text x="487" y="295" text-anchor="middle" dominant-baseline="central" style="fill:rgb(206, 203, 246);font-size:14px;font-weight:500;">parser</text>
    <text x="487" y="311" text-anchor="middle" dominant-baseline="central" style="fill:rgb(175, 169, 236);font-size:12px;">→ str</text>
  </g>
  <line x1="532" y1="303" x2="562" y2="303" marker-end="url(#arrow)" stroke="rgb(156, 154, 146)" stroke-width="1.5"/>
  <g>
    <rect x="562" y="285" width="78" height="36" rx="6" stroke-width="0.5" style="fill:rgb(8, 80, 65);stroke:rgb(93, 202, 165);"/>
    <text x="601" y="303" text-anchor="middle" dominant-baseline="central" style="fill:rgb(159, 225, 203);font-size:14px;font-weight:500;">결과</text>
  </g>
</svg>
